<?xml version="1.0" encoding="utf-8"?>
<!-- Generator: Adobe Illustrator 22.0.1, SVG Export Plug-In . SVG Version: 6.00 Build 0)  -->
<svg version="1.1" id="Layer_1" xmlns="http://www.w3.org/2000/svg" xmlns:xlink="http://www.w3.org/1999/xlink" x="0px" y="0px"
	 viewBox="0 0 1000 1000" enable-background="new 0 0 1000 1000" xml:space="preserve">
<g>
	<g>
		<g>
			<path fill="#21324C" d="M344.2,686.7c-5-8.3-18.7-16.2-34.6-16.2c-20.4,0-30.2,8.5-30.2,19.4c0,12.7,15,16.2,32.5,18.3
				c30.4,3.7,58.7,11.7,58.7,46.4c0,32.5-28.7,46.4-61.2,46.4c-29.8,0-52.7-9.2-63.5-35.8l22.9-11.9c6.5,16,23.3,23.1,41,23.1
				c17.3,0,33.5-6,33.5-21.9c0-13.7-14.4-19.4-33.7-21.4c-29.8-3.5-57.2-11.5-57.2-44.1c0-30,29.6-42.3,56.4-42.5
				c22.7,0,46.2,6.5,57.2,28.9L344.2,686.7z"/>
			<path fill="#21324C" d="M471.2,676.5H425v-25c42,0,77.6,0,119.9,0v25h-46.2v120.7h-27.5V676.5z"/>
			<path fill="#21324C" d="M706.6,769.8h-76.2l-12.5,27.5h-29.8l65.4-145.7h30l65.4,145.7h-30L706.6,769.8z M668.5,682.1l-27.1,62
				h54.1L668.5,682.1z"/>
			<path fill="#21324C" d="M932.1,797.3h-32.7l-42.5-48.7h-26.4v48.7H803V651.3c23.1,0,46.2,0.2,69.3,0.2
				c34.3,0.2,52.5,23.1,52.5,48.3c0,20-9.2,40.2-36.8,45.8l44.1,49.7V797.3z M830.5,677.1v46.6h41.8c17.5,0,25-11.7,25-23.3
				s-7.7-23.3-25-23.3H830.5z"/>
		</g>
		<g>
			<path fill="#4897F7" d="M677.7,460.4c-19.3,69-81.8,124.8-153.1,134.4c-76.5,10.3-157.2-33.2-190.7-102.7
				c-44.1-91.7-0.9-209.2,93.2-248.3c50.9-21.1,111.4-20.1,160.2,6.2c67.9,36.6,107.7,119.2,93.9,195.2
				C680.3,450.3,679.1,455.4,677.7,460.4z"/>
			<g>
				<polygon fill="#DFDF00" points="500,265.2 500,265.2 500,265.1 455.3,362 349.2,374.6 427.6,447.1 406.8,551.8 500,499.6 
					500,499.6 500,499.6 500,499.6 500,265.2 				"/>
				<polygon fill="#DD9E00" points="500,499.6 500,499.6 593.2,551.8 572.4,447.1 650.8,374.6 544.7,362 500,265.1 500,265.2 
					500,265.2 500,265.2 500,499.6 500,499.6 				"/>
			</g>
			<g>
				<polygon fill="#21324C" points="289.2,375.2 263,345.7 300.1,342.3 337.2,230.7 388.7,247.8 396.6,224 321.3,199 281.5,318.8 
					211.4,325.3 260.8,381 222.9,495.3 298.2,520.3 306.1,496.5 254.6,479.3 				"/>
				<polygon fill="#21324C" points="788.6,325.3 718.5,318.8 678.7,199 603.4,224 611.3,247.8 662.8,230.7 699.9,342.3 737,345.7 
					710.8,375.2 745.4,479.3 693.9,496.5 701.8,520.3 777.1,495.3 739.2,381 				"/>
				<path fill="#21324C" d="M593.7,451.7l101.5-93.9l-137.3-16.3L500,216.1v0l0,0l0,0v0l-57.9,125.5l-137.3,16.3l101.5,93.9
					l-26.9,135.6L500,519.8l120.6,67.5L593.7,451.7z M500,491L500,491L500,491L500,491L500,491L500,491L500,491l-85.4,47.8l19.1-96
					l-71.9-66.5l97.2-11.5l41-88.8l0,0.1v0l0,0l0,0v0l0-0.1l41,88.8l97.2,11.5l-71.9,66.5l19.1,96L500,491z"/>
			</g>
		</g>
	</g>
	<path fill="#4897F7" d="M161.3,651.5h27.4v145.5h-17v0.2l-76.4-98.2v98H67.9V651.7h22.2l71.2,90.1V651.5z"/>
</g>
</svg>
